<svg width="400" height="400" viewBox="0 0 400 400" fill="none" xmlns="http://www.w3.org/2000/svg">
<g clip-path="url(#clip0_0_1)">
<rect width="400" height="400" rx="40" fill="#F61067"/>
<mask id="path-2-inside-1_0_1" fill="white">
<path d="M178.697 185.31C178.114 171.645 180.305 158.823 182.818 147C193.056 98.8463 224.248 67.2661 247.983 62.8188C260.927 60.3676 274.397 63.4746 285.155 71.6529C215.329 -0.438898 71.9143 113.573 43.1144 214.01C41.3981 227.517 45.5601 241.923 53.9321 251.739C69.152 269.582 115.799 284.059 166.506 264.571C175.81 260.995 185.25 255.31 194.658 249.338C185.092 229.327 179.644 207.487 178.697 185.31Z"/>
</mask>
<path d="M178.697 185.31C178.114 171.645 180.305 158.823 182.818 147C193.056 98.8463 224.248 67.2661 247.983 62.8188C260.927 60.3676 274.397 63.4746 285.155 71.6529C215.329 -0.438898 71.9143 113.573 43.1144 214.01C41.3981 227.517 45.5601 241.923 53.9321 251.739C69.152 269.582 115.799 284.059 166.506 264.571C175.81 260.995 185.25 255.31 194.658 249.338C185.092 229.327 179.644 207.487 178.697 185.31Z" fill="#FFD60A" stroke="#001D3D" stroke-width="30" mask="url(#path-2-inside-1_0_1)"/>
<mask id="path-3-inside-2_0_1" fill="white">
<path d="M194.773 249.376C186.147 254.86 177.433 259.25 168.782 262.677C118.711 282.515 70.7439 270.087 54.0496 250.619C45.4555 240.634 41.4106 227.415 43.1142 214.009C15.5943 310.527 186.038 377.722 287.419 352.445C299.975 347.177 310.462 336.945 314.776 324.788C324.057 298.63 305.943 236.834 242.242 203.54C229.696 221.83 213.506 237.468 194.773 249.376Z"/>
</mask>
<path d="M194.773 249.376C186.147 254.86 177.433 259.25 168.782 262.677C118.711 282.515 70.7439 270.087 54.0496 250.619C45.4555 240.634 41.4106 227.415 43.1142 214.009C15.5943 310.527 186.038 377.722 287.419 352.445C299.975 347.177 310.462 336.945 314.776 324.788C324.057 298.63 305.943 236.834 242.242 203.54C229.696 221.83 213.506 237.468 194.773 249.376Z" fill="#FFD60A" stroke="#001D3D" stroke-width="30" mask="url(#path-3-inside-2_0_1)"/>
<mask id="path-4-inside-3_0_1" fill="white">
<path d="M242.218 203.421C251.915 208.481 260.578 215.254 268.253 221.5C309.264 254.876 322.066 300.771 313.655 324.67C309.306 337.104 299.881 347.217 287.419 352.445C384.765 328.019 357.736 146.813 285.155 71.6528C274.315 63.4128 259.667 59.2379 246.981 61.5809C219.687 66.6217 175.771 113.416 178.788 185.229C200.901 186.95 222.539 193.152 242.218 203.421Z"/>
</mask>
<path d="M242.218 203.421C251.915 208.481 260.578 215.254 268.253 221.5C309.264 254.876 322.066 300.771 313.655 324.67C309.306 337.104 299.881 347.217 287.419 352.445C384.765 328.019 357.736 146.813 285.155 71.6528C274.315 63.4128 259.667 59.2379 246.981 61.5809C219.687 66.6217 175.771 113.416 178.788 185.229C200.901 186.95 222.539 193.152 242.218 203.421Z" fill="#FFD60A" stroke="#001D3D" stroke-width="30" mask="url(#path-4-inside-3_0_1)"/>
</g>
<defs>
<clipPath id="clip0_0_1">
<rect width="400" height="400" fill="black"/>
</clipPath>
</defs>
</svg>
